<svg id="my-svg" width="100%" xmlns="http://www.w3.org/2000/svg" xmlns:xlink="http://www.w3.org/1999/xlink" class="flowchart" style="max-width: 3937.11px; background-color: transparent;" viewBox="0 0 3937.109375 970.1897583007812" role="graphics-document document" aria-roledescription="flowchart-v2"><style>#my-svg{font-family:"trebuchet ms",verdana,arial,sans-serif;font-size:16px;fill:#333;}@keyframes edge-animation-frame{from{stroke-dashoffset:0;}}@keyframes dash{to{stroke-dashoffset:0;}}#my-svg .edge-animation-slow{stroke-dasharray:9,5!important;stroke-dashoffset:900;animation:dash 50s linear infinite;stroke-linecap:round;}#my-svg .edge-animation-fast{stroke-dasharray:9,5!important;stroke-dashoffset:900;animation:dash 20s linear infinite;stroke-linecap:round;}#my-svg .error-icon{fill:#552222;}#my-svg .error-text{fill:#552222;stroke:#552222;}#my-svg .edge-thickness-normal{stroke-width:1px;}#my-svg .edge-thickness-thick{stroke-width:3.5px;}#my-svg .edge-pattern-solid{stroke-dasharray:0;}#my-svg .edge-thickness-invisible{stroke-width:0;fill:none;}#my-svg .edge-pattern-dashed{stroke-dasharray:3;}#my-svg .edge-pattern-dotted{stroke-dasharray:2;}#my-svg .marker{fill:#333333;stroke:#333333;}#my-svg .marker.cross{stroke:#333333;}#my-svg svg{font-family:"trebuchet ms",verdana,arial,sans-serif;font-size:16px;}#my-svg p{margin:0;}#my-svg .label{font-family:"trebuchet ms",verdana,arial,sans-serif;color:#333;}#my-svg .cluster-label text{fill:#333;}#my-svg .cluster-label span{color:#333;}#my-svg .cluster-label span p{background-color:transparent;}#my-svg .label text,#my-svg span{fill:#333;color:#333;}#my-svg .node rect,#my-svg .node circle,#my-svg .node ellipse,#my-svg .node polygon,#my-svg .node path{fill:#ECECFF;stroke:#9370DB;stroke-width:1px;}#my-svg .rough-node .label text,#my-svg .node .label text,#my-svg .image-shape .label,#my-svg .icon-shape .label{text-anchor:middle;}#my-svg .node .katex path{fill:#000;stroke:#000;stroke-width:1px;}#my-svg .rough-node .label,#my-svg .node .label,#my-svg .image-shape .label,#my-svg .icon-shape .label{text-align:center;}#my-svg .node.clickable{cursor:pointer;}#my-svg .root .anchor path{fill:#333333!important;stroke-width:0;stroke:#333333;}#my-svg .arrowheadPath{fill:#333333;}#my-svg .edgePath .path{stroke:#333333;stroke-width:2.0px;}#my-svg .flowchart-link{stroke:#333333;fill:none;}#my-svg .edgeLabel{background-color:rgba(232,232,232, 0.8);text-align:center;}#my-svg .edgeLabel p{background-color:rgba(232,232,232, 0.8);}#my-svg .edgeLabel rect{opacity:0.5;background-color:rgba(232,232,232, 0.8);fill:rgba(232,232,232, 0.8);}#my-svg .labelBkg{background-color:rgba(232, 232, 232, 0.5);}#my-svg .cluster rect{fill:#ffffde;stroke:#aaaa33;stroke-width:1px;}#my-svg .cluster text{fill:#333;}#my-svg .cluster span{color:#333;}#my-svg div.mermaidTooltip{position:absolute;text-align:center;max-width:200px;padding:2px;font-family:"trebuchet ms",verdana,arial,sans-serif;font-size:12px;background:hsl(80, 100%, 96.2745098039%);border:1px solid #aaaa33;border-radius:2px;pointer-events:none;z-index:100;}#my-svg .flowchartTitleText{text-anchor:middle;font-size:18px;fill:#333;}#my-svg rect.text{fill:none;stroke-width:0;}#my-svg .icon-shape,#my-svg .image-shape{background-color:rgba(232,232,232, 0.8);text-align:center;}#my-svg .icon-shape p,#my-svg .image-shape p{background-color:rgba(232,232,232, 0.8);padding:2px;}#my-svg .icon-shape rect,#my-svg .image-shape rect{opacity:0.5;background-color:rgba(232,232,232, 0.8);fill:rgba(232,232,232, 0.8);}#my-svg .label-icon{display:inline-block;height:1em;overflow:visible;vertical-align:-0.125em;}#my-svg .node .label-icon path{fill:currentColor;stroke:revert;stroke-width:revert;}#my-svg :root{--mermaid-font-family:"trebuchet ms",verdana,arial,sans-serif;}</style><g><marker id="my-svg_flowchart-v2-pointEnd" class="marker flowchart-v2" viewBox="0 0 10 10" refX="5" refY="5" markerUnits="userSpaceOnUse" markerWidth="8" markerHeight="8" orient="auto"><path d="M 0 0 L 10 5 L 0 10 z" class="arrowMarkerPath" style="stroke-width: 1; stroke-dasharray: 1, 0;"/></marker><marker id="my-svg_flowchart-v2-pointStart" class="marker flowchart-v2" viewBox="0 0 10 10" refX="4.5" refY="5" markerUnits="userSpaceOnUse" markerWidth="8" markerHeight="8" orient="auto"><path d="M 0 5 L 10 10 L 10 0 z" class="arrowMarkerPath" style="stroke-width: 1; stroke-dasharray: 1, 0;"/></marker><marker id="my-svg_flowchart-v2-circleEnd" class="marker flowchart-v2" viewBox="0 0 10 10" refX="11" refY="5" markerUnits="userSpaceOnUse" markerWidth="11" markerHeight="11" orient="auto"><circle cx="5" cy="5" r="5" class="arrowMarkerPath" style="stroke-width: 1; stroke-dasharray: 1, 0;"/></marker><marker id="my-svg_flowchart-v2-circleStart" class="marker flowchart-v2" viewBox="0 0 10 10" refX="-1" refY="5" markerUnits="userSpaceOnUse" markerWidth="11" markerHeight="11" orient="auto"><circle cx="5" cy="5" r="5" class="arrowMarkerPath" style="stroke-width: 1; stroke-dasharray: 1, 0;"/></marker><marker id="my-svg_flowchart-v2-crossEnd" class="marker cross flowchart-v2" viewBox="0 0 11 11" refX="12" refY="5.2" markerUnits="userSpaceOnUse" markerWidth="11" markerHeight="11" orient="auto"><path d="M 1,1 l 9,9 M 10,1 l -9,9" class="arrowMarkerPath" style="stroke-width: 2; stroke-dasharray: 1, 0;"/></marker><marker id="my-svg_flowchart-v2-crossStart" class="marker cross flowchart-v2" viewBox="0 0 11 11" refX="-1" refY="5.2" markerUnits="userSpaceOnUse" markerWidth="11" markerHeight="11" orient="auto"><path d="M 1,1 l 9,9 M 10,1 l -9,9" class="arrowMarkerPath" style="stroke-width: 2; stroke-dasharray: 1, 0;"/></marker><g class="root"><g class="clusters"><g class="cluster" id="ADMIN" data-look="classic"><rect style="" x="3195.109375" y="775.1897773742676" width="484.59375" height="148"/><g class="cluster-label" transform="translate(3375.2890625, 775.1897773742676)"><foreignObject width="124.234375" height="24"><div xmlns="http://www.w3.org/1999/xhtml" style="display: table-cell; white-space: nowrap; line-height: 1.5; max-width: 200px; text-align: center;"><span class="nodeLabel"><p>Admin Dashboard</p></span></div></foreignObject></g></g><g class="cluster" id="APP" data-look="classic"><rect style="" x="895.953125" y="97" width="3033.15625" height="624.1897773742676"/><g class="cluster-label" transform="translate(2341.6640625, 97)"><foreignObject width="141.734375" height="24"><div xmlns="http://www.w3.org/1999/xhtml" style="display: table-cell; white-space: nowrap; line-height: 1.5; max-width: 200px; text-align: center;"><span class="nodeLabel"><p>Restaurant Backend</p></span></div></foreignObject></g></g></g><g class="edgePaths"><path d="M135.953,276L156.786,276C177.62,276,219.286,276,260.286,276C301.286,276,341.62,276,361.786,276L381.953,276" id="L_C_HPS_0" class="edge-thickness-normal edge-pattern-solid edge-thickness-normal edge-pattern-solid flowchart-link" style=";" data-edge="true" data-et="edge" data-id="L_C_HPS_0" data-points="W3sieCI6MTM1Ljk1MzEyNSwieSI6Mjc2fSx7IngiOjI2MC45NTMxMjUsInkiOjI3Nn0seyJ4IjozODUuOTUzMTI1LCJ5IjoyNzZ9XQ==" marker-end="url(#my-svg_flowchart-v2-pointEnd)"/><path d="M645.953,241.333L666.786,235.778C687.62,230.222,729.286,219.111,770.953,213.556C812.62,208,854.286,208,896.649,243.363C939.012,278.726,982.071,349.452,1003.6,384.815L1025.129,420.178" id="L_HPS_SI_0" class="edge-thickness-normal edge-pattern-solid edge-thickness-normal edge-pattern-solid flowchart-link" style=";" data-edge="true" data-et="edge" data-id="L_HPS_SI_0" data-points="W3sieCI6NjQ1Ljk1MzEyNSwieSI6MjQxLjMzMzMzMzMzMzMzMzM0fSx7IngiOjc3MC45NTMxMjUsInkiOjIwOH0seyJ4Ijo4OTUuOTUzMTI1LCJ5IjoyMDh9LHsieCI6MTAyNy4yMDk1MjE4NTM5NTAzLCJ5Ijo0MjMuNTk0ODg4Njg3MTMzOH1d" marker-end="url(#my-svg_flowchart-v2-pointEnd)"/><path d="M1180.953,462.595L1185.12,462.595C1189.286,462.595,1197.62,462.595,1211.72,462.595C1225.82,462.595,1245.688,462.595,1255.621,462.595L1265.555,462.595" id="L_SI_OC_0" class="edge-thickness-normal edge-pattern-solid edge-thickness-normal edge-pattern-solid flowchart-link" style=";" data-edge="true" data-et="edge" data-id="L_SI_OC_0" data-points="W3sieCI6MTE4MC45NTMxMjUsInkiOjQ2Mi41OTQ4ODg2ODcxMzM4fSx7IngiOjEyMDUuOTUzMTI1LCJ5Ijo0NjIuNTk0ODg4Njg3MTMzOH0seyJ4IjoxMjY5LjU1NDY4NzUsInkiOjQ2Mi41OTQ4ODg2ODcxMzM4fV0=" marker-end="url(#my-svg_flowchart-v2-pointEnd)"/><path d="M1391.952,435.595L1428.504,405.996C1465.057,376.397,1538.161,317.198,1600.447,303.581C1662.732,289.963,1714.199,321.926,1739.933,337.908L1765.666,353.89" id="L_OC_OS_0" class="edge-thickness-normal edge-pattern-solid edge-thickness-normal edge-pattern-solid flowchart-link" style=";" data-edge="true" data-et="edge" data-id="L_OC_OS_0" data-points="W3sieCI6MTM5MS45NTE5NDE4MzQyNjYsInkiOjQzNS41OTQ4ODg2ODcxMzM4fSx7IngiOjE2MTEuMjY1NjI1LCJ5IjoyNTh9LHsieCI6MTc2OS4wNjQsInkiOjM1Nn1d" marker-end="url(#my-svg_flowchart-v2-pointEnd)"/><path d="M1888.813,367.084L1909.646,362.737C1930.479,358.389,1972.146,349.695,2035.479,345.347C2098.813,341,2183.813,341,2257.616,341C2331.419,341,2394.026,341,2441.517,349.27C2489.008,357.539,2521.383,374.079,2537.571,382.348L2553.758,390.618" id="L_OS_DB_0" class="edge-thickness-normal edge-pattern-solid edge-thickness-normal edge-pattern-solid flowchart-link" style=";" data-edge="true" data-et="edge" data-id="L_OS_DB_0" data-points="W3sieCI6MTg4OC44MTI1LCJ5IjozNjcuMDgzOTE4Nzk4Mjc2Nn0seyJ4IjoyMDEzLjgxMjUsInkiOjM0MX0seyJ4IjoyMjY4LjgxMjUsInkiOjM0MX0seyJ4IjoyNDU2LjYzMjgxMjUsInkiOjM0MX0seyJ4IjoyNTU3LjMyMDMxMjUsInkiOjM5Mi40Mzc2OTQwMTMzMDM3N31d" marker-end="url(#my-svg_flowchart-v2-pointEnd)"/><path d="M1888.813,390.579L1909.646,392.649C1930.479,394.719,1972.146,398.86,2021.177,400.93C2070.208,403,2126.604,403,2154.802,403L2183,403" id="L_OS_LS_0" class="edge-thickness-normal edge-pattern-solid edge-thickness-normal edge-pattern-solid flowchart-link" style=";" data-edge="true" data-et="edge" data-id="L_OS_LS_0" data-points="W3sieCI6MTg4OC44MTI1LCJ5IjozOTAuNTc5MDg2Mjg2NTM0OTZ9LHsieCI6MjAxMy44MTI1LCJ5Ijo0MDN9LHsieCI6MjE4NywieSI6NDAzfV0=" marker-end="url(#my-svg_flowchart-v2-pointEnd)"/><path d="M1864.793,356L1889.629,343.167C1914.466,330.333,1964.139,304.667,2016.627,291.833C2069.115,279,2124.417,279,2152.068,279L2179.719,279" id="L_OS_DS_0" class="edge-thickness-normal edge-pattern-solid edge-thickness-normal edge-pattern-solid flowchart-link" style=";" data-edge="true" data-et="edge" data-id="L_OS_DS_0" data-points="W3sieCI6MTg2NC43OTI3NDMzODk0MjMsInkiOjM1Nn0seyJ4IjoyMDEzLjgxMjUsInkiOjI3OX0seyJ4IjoyMTgzLjcxODc1LCJ5IjoyNzl9XQ==" marker-end="url(#my-svg_flowchart-v2-pointEnd)"/><path d="M1846.045,410L1874.007,432.532C1901.968,455.063,1957.89,500.127,2011.315,522.658C2064.74,545.19,2115.667,545.19,2141.13,545.19L2166.594,545.19" id="L_OS_SMS_0" class="edge-thickness-normal edge-pattern-solid edge-thickness-normal edge-pattern-solid flowchart-link" style=";" data-edge="true" data-et="edge" data-id="L_OS_SMS_0" data-points="W3sieCI6MTg0Ni4wNDUzODM5MjQ2ODMyLCJ5Ijo0MTB9LHsieCI6MjAxMy44MTI1LCJ5Ijo1NDUuMTg5Nzc3Mzc0MjY3Nn0seyJ4IjoyMTcwLjU5Mzc1LCJ5Ijo1NDUuMTg5Nzc3Mzc0MjY3Nn1d" marker-end="url(#my-svg_flowchart-v2-pointEnd)"/><path d="M2350.625,403L2368.293,403C2385.961,403,2421.297,403,2455.081,404.144C2488.865,405.287,2521.098,407.574,2537.214,408.718L2553.33,409.861" id="L_LS_DB_0" class="edge-thickness-normal edge-pattern-solid edge-thickness-normal edge-pattern-solid flowchart-link" style=";" data-edge="true" data-et="edge" data-id="L_LS_DB_0" data-points="W3sieCI6MjM1MC42MjUsInkiOjQwM30seyJ4IjoyNDU2LjYzMjgxMjUsInkiOjQwM30seyJ4IjoyNTU3LjMyMDMxMjUsInkiOjQxMC4xNDQxMjQxNjg1MTQ0fV0=" marker-end="url(#my-svg_flowchart-v2-pointEnd)"/><path d="M2302.94,306L2328.555,326.266C2354.171,346.532,2405.402,387.063,2447.135,405.66C2488.869,424.257,2521.105,420.918,2537.223,419.249L2553.342,417.58" id="L_DS_DB_0" class="edge-thickness-normal edge-pattern-solid edge-thickness-normal edge-pattern-solid flowchart-link" style=";" data-edge="true" data-et="edge" data-id="L_DS_DB_0" data-points="W3sieCI6MjMwMi45Mzk4NDEwMDI4MDcsInkiOjMwNn0seyJ4IjoyNDU2LjYzMjgxMjUsInkiOjQyNy41OTQ4ODg2ODcxMzM4fSx7IngiOjI1NTcuMzIwMzEyNSwieSI6NDE3LjE2ODExODk4NjQ4MDh9XQ==" marker-end="url(#my-svg_flowchart-v2-pointEnd)"/><path d="M2320.774,518.19L2343.417,506.424C2366.06,494.658,2411.346,471.127,2450.123,455.4C2488.9,439.674,2521.168,431.754,2537.302,427.794L2553.436,423.833" id="L_SMS_DB_0" class="edge-thickness-normal edge-pattern-solid edge-thickness-normal edge-pattern-solid flowchart-link" style=";" data-edge="true" data-et="edge" data-id="L_SMS_DB_0" data-points="W3sieCI6MjMyMC43NzM3MDkyOTgxMzE1LCJ5Ijo1MTguMTg5Nzc3Mzc0MjY3Nn0seyJ4IjoyNDU2LjYzMjgxMjUsInkiOjQ0Ny41OTQ4ODg2ODcxMzM4fSx7IngiOjI1NTcuMzIwMzEyNSwieSI6NDIyLjg3OTg3MDY0OTQ1MTk2fV0=" marker-end="url(#my-svg_flowchart-v2-pointEnd)"/><path d="M3801.45,244L3785.325,272.167C3769.201,300.333,3736.952,356.667,3716.661,384.833C3696.37,413,3688.036,413,3658.036,413C3628.036,413,3576.37,413,3524.703,413C3473.036,413,3421.37,413,3380.987,413C3340.604,413,3311.505,413,3282.406,413C3253.307,413,3224.208,413,3188.826,413C3153.443,413,3111.776,413,3052.241,413C2992.706,413,2915.302,413,2854.565,413C2793.828,413,2749.758,413,2717.078,413C2684.398,413,2663.109,413,2652.465,413L2641.82,413" id="L_AUD_DB_0" class="edge-thickness-normal edge-pattern-solid edge-thickness-normal edge-pattern-solid flowchart-link" style=";" data-edge="true" data-et="edge" data-id="L_AUD_DB_0" data-points="W3sieCI6MzgwMS40NDk2OTcwNjYzMjY3LCJ5IjoyNDR9LHsieCI6MzcwNC43MDMxMjUsInkiOjQxM30seyJ4IjozNjc5LjcwMzEyNSwieSI6NDEzfSx7IngiOjM1MjQuNzAzMTI1LCJ5Ijo0MTN9LHsieCI6MzM2OS43MDMxMjUsInkiOjQxM30seyJ4IjozMjgyLjQwNjI1LCJ5Ijo0MTN9LHsieCI6MzE5NS4xMDkzNzUsInkiOjQxM30seyJ4IjozMDcwLjEwOTM3NSwieSI6NDEzfSx7IngiOjI4MzcuODk4NDM3NSwieSI6NDEzfSx7IngiOjI3MDUuNjg3NSwieSI6NDEzfSx7IngiOjI2MzcuODIwMzEyNSwieSI6NDEzfV0=" marker-end="url(#my-svg_flowchart-v2-pointEnd)"/><path d="M1833.934,356L1863.914,318.167C1893.894,280.333,1953.853,204.667,2026.333,166.833C2098.813,129,2183.813,129,2257.616,129C2331.419,129,2394.026,129,2448.819,129C2503.612,129,2550.591,129,2592.1,129C2633.609,129,2669.648,129,2709.703,129C2749.758,129,2793.828,129,2854.565,129C2915.302,129,2992.706,129,3052.241,129C3111.776,129,3153.443,129,3188.826,129C3224.208,129,3253.307,129,3282.406,129C3311.505,129,3340.604,129,3380.987,129C3421.37,129,3473.036,129,3524.703,129C3576.37,129,3628.036,129,3658.036,129C3688.036,129,3696.37,129,3712.975,138.755C3729.58,148.51,3754.456,168.021,3766.895,177.776L3779.333,187.531" id="L_OS_AUD_0" class="edge-thickness-normal edge-pattern-solid edge-thickness-normal edge-pattern-solid flowchart-link" style=";" data-edge="true" data-et="edge" data-id="L_OS_AUD_0" data-points="W3sieCI6MTgzMy45MzQyNzA0MjMyMjgzLCJ5IjozNTZ9LHsieCI6MjAxMy44MTI1LCJ5IjoxMjl9LHsieCI6MjI2OC44MTI1LCJ5IjoxMjl9LHsieCI6MjQ1Ni42MzI4MTI1LCJ5IjoxMjl9LHsieCI6MjU5Ny41NzAzMTI1LCJ5IjoxMjl9LHsieCI6MjcwNS42ODc1LCJ5IjoxMjl9LHsieCI6MjgzNy44OTg0Mzc1LCJ5IjoxMjl9LHsieCI6MzA3MC4xMDkzNzUsInkiOjEyOX0seyJ4IjozMTk1LjEwOTM3NSwieSI6MTI5fSx7IngiOjMyODIuNDA2MjUsInkiOjEyOX0seyJ4IjozMzY5LjcwMzEyNSwieSI6MTI5fSx7IngiOjM1MjQuNzAzMTI1LCJ5IjoxMjl9LHsieCI6MzY3OS43MDMxMjUsInkiOjEyOX0seyJ4IjozNzA0LjcwMzEyNSwieSI6MTI5fSx7IngiOjM3ODIuNDgwMjkxMTkzMTgyLCJ5IjoxOTB9XQ==" marker-end="url(#my-svg_flowchart-v2-pointEnd)"/><path d="M2316.654,252L2339.983,238.833C2363.313,225.667,2409.973,199.333,2456.793,186.167C2503.612,173,2550.591,173,2592.1,173C2633.609,173,2669.648,173,2709.703,173C2749.758,173,2793.828,173,2854.565,173C2915.302,173,2992.706,173,3052.241,173C3111.776,173,3153.443,173,3188.826,173C3224.208,173,3253.307,173,3282.406,173C3311.505,173,3340.604,173,3380.987,173C3421.37,173,3473.036,173,3524.703,173C3576.37,173,3628.036,173,3658.036,173C3688.036,173,3696.37,173,3707.141,175.59C3717.912,178.18,3731.121,183.36,3737.726,185.95L3744.33,188.54" id="L_DS_AUD_0" class="edge-thickness-normal edge-pattern-solid edge-thickness-normal edge-pattern-solid flowchart-link" style=";" data-edge="true" data-et="edge" data-id="L_DS_AUD_0" data-points="W3sieCI6MjMxNi42NTM1MjI5OTUyODMsInkiOjI1Mn0seyJ4IjoyNDU2LjYzMjgxMjUsInkiOjE3M30seyJ4IjoyNTk3LjU3MDMxMjUsInkiOjE3M30seyJ4IjoyNzA1LjY4NzUsInkiOjE3M30seyJ4IjoyODM3Ljg5ODQzNzUsInkiOjE3M30seyJ4IjozMDcwLjEwOTM3NSwieSI6MTczfSx7IngiOjMxOTUuMTA5Mzc1LCJ5IjoxNzN9LHsieCI6MzI4Mi40MDYyNSwieSI6MTczfSx7IngiOjMzNjkuNzAzMTI1LCJ5IjoxNzN9LHsieCI6MzUyNC43MDMxMjUsInkiOjE3M30seyJ4IjozNjc5LjcwMzEyNSwieSI6MTczfSx7IngiOjM3MDQuNzAzMTI1LCJ5IjoxNzN9LHsieCI6Mzc0OC4wNTQzMzIzODYzNjM1LCJ5IjoxOTB9XQ==" marker-end="url(#my-svg_flowchart-v2-pointEnd)"/><path d="M1004.308,501.595L986.249,516.694C968.19,531.793,932.071,561.991,893.179,577.091C854.286,592.19,812.62,592.19,754.947,546.51C697.274,500.831,623.596,409.472,586.756,363.793L549.917,318.114" id="L_SI_HPS_0" class="edge-thickness-normal edge-pattern-solid edge-thickness-normal edge-pattern-solid flowchart-link" style=";" data-edge="true" data-et="edge" data-id="L_SI_HPS_0" data-points="W3sieCI6MTAwNC4zMDc3NjY4Mjg1NTQyLCJ5Ijo1MDEuNTk0ODg4Njg3MTMzOH0seyJ4Ijo4OTUuOTUzMTI1LCJ5Ijo1OTIuMTg5Nzc3Mzc0MjY3Nn0seyJ4Ijo3NzAuOTUzMTI1LCJ5Ijo1OTIuMTg5Nzc3Mzc0MjY3Nn0seyJ4Ijo1NDcuNDA1NzU0NzU0NzgyNywieSI6MzE1fV0=" marker-end="url(#my-svg_flowchart-v2-pointEnd)"/><path d="M557.219,237L592.841,203.333C628.463,169.667,699.708,102.333,756.164,68.667C812.62,35,854.286,35,900.953,35C947.62,35,999.286,35,1050.953,35C1102.62,35,1154.286,35,1183.62,35C1212.953,35,1219.953,35,1223.453,35L1226.953,35" id="L_HPS_CB_0" class="edge-thickness-normal edge-pattern-solid edge-thickness-normal edge-pattern-solid flowchart-link" style=";" data-edge="true" data-et="edge" data-id="L_HPS_CB_0" data-points="W3sieCI6NTU3LjIxODY4NTE2NTk3NTEsInkiOjIzN30seyJ4Ijo3NzAuOTUzMTI1LCJ5IjozNX0seyJ4Ijo4OTUuOTUzMTI1LCJ5IjozNX0seyJ4IjoxMDUwLjk1MzEyNSwieSI6MzV9LHsieCI6MTIwNS45NTMxMjUsInkiOjM1fSx7IngiOjEyMzAuOTUzMTI1LCJ5IjozNX1d" marker-end="url(#my-svg_flowchart-v2-pointEnd)"/><path d="M1376.533,62L1415.655,120.932C1454.777,179.865,1533.021,297.73,1592.319,353.395C1651.616,409.06,1691.967,402.526,1712.142,399.259L1732.317,395.991" id="L_CB_OS_0" class="edge-thickness-normal edge-pattern-solid edge-thickness-normal edge-pattern-solid flowchart-link" style=";" data-edge="true" data-et="edge" data-id="L_CB_OS_0" data-points="W3sieCI6MTM3Ni41MzMyMDY3NTA2ODgsInkiOjYyfSx7IngiOjE2MTEuMjY1NjI1LCJ5Ijo0MTUuNTk0ODg4Njg3MTMzOH0seyJ4IjoxNzM2LjI2NTYyNSwieSI6Mzk1LjM1MTk3MzY5Mjk4OTV9XQ==" marker-end="url(#my-svg_flowchart-v2-pointEnd)"/><path d="M1396.091,62L1431.954,87.833C1467.816,113.667,1539.541,165.333,1608.949,191.167C1678.357,217,1745.448,217,1812.539,217C1879.63,217,1946.721,217,2022.767,217C2098.813,217,2183.813,217,2257.616,217C2331.419,217,2394.026,217,2448.819,217C2503.612,217,2550.591,217,2592.1,217C2633.609,217,2669.648,217,2709.703,217C2749.758,217,2793.828,217,2854.565,217C2915.302,217,2992.706,217,3052.241,217C3111.776,217,3153.443,217,3188.826,217C3224.208,217,3253.307,217,3282.406,217C3311.505,217,3340.604,217,3380.987,217C3421.37,217,3473.036,217,3524.703,217C3576.37,217,3628.036,217,3658.036,217C3688.036,217,3696.37,217,3704.036,217C3711.703,217,3718.703,217,3722.203,217L3725.703,217" id="L_CB_AUD_0" class="edge-thickness-normal edge-pattern-solid edge-thickness-normal edge-pattern-solid flowchart-link" style=";" data-edge="true" data-et="edge" data-id="L_CB_AUD_0" data-points="W3sieCI6MTM5Ni4wOTEzNDYxNTM4NDYyLCJ5Ijo2Mn0seyJ4IjoxNjExLjI2NTYyNSwieSI6MjE3fSx7IngiOjE4MTIuNTM5MDYyNSwieSI6MjE3fSx7IngiOjIwMTMuODEyNSwieSI6MjE3fSx7IngiOjIyNjguODEyNSwieSI6MjE3fSx7IngiOjI0NTYuNjMyODEyNSwieSI6MjE3fSx7IngiOjI1OTcuNTcwMzEyNSwieSI6MjE3fSx7IngiOjI3MDUuNjg3NSwieSI6MjE3fSx7IngiOjI4MzcuODk4NDM3NSwieSI6MjE3fSx7IngiOjMwNzAuMTA5Mzc1LCJ5IjoyMTd9LHsieCI6MzE5NS4xMDkzNzUsInkiOjIxN30seyJ4IjozMjgyLjQwNjI1LCJ5IjoyMTd9LHsieCI6MzM2OS43MDMxMjUsInkiOjIxN30seyJ4IjozNTI0LjcwMzEyNSwieSI6MjE3fSx7IngiOjM2NzkuNzAzMTI1LCJ5IjoyMTd9LHsieCI6MzcwNC43MDMxMjUsInkiOjIxN30seyJ4IjozNzI5LjcwMzEyNSwieSI6MjE3fV0=" marker-end="url(#my-svg_flowchart-v2-pointEnd)"/><path d="M1838.895,410L1868.048,439.865C1897.201,469.73,1955.507,529.46,2018.595,586.739C2081.683,644.019,2149.554,698.847,2183.489,726.262L2217.424,753.676" id="L_OS_TSC_0" class="edge-thickness-normal edge-pattern-solid edge-thickness-normal edge-pattern-solid flowchart-link" style=";" data-edge="true" data-et="edge" data-id="L_OS_TSC_0" data-points="W3sieCI6MTgzOC44OTUyODA5Mzk2NTQ5LCJ5Ijo0MTB9LHsieCI6MjAxMy44MTI1LCJ5Ijo1ODkuMTg5Nzc3Mzc0MjY3Nn0seyJ4IjoyMjIwLjUzNTgwMDk3MDg3NCwieSI6NzU2LjE4OTc3NzM3NDI2NzZ9XQ==" marker-end="url(#my-svg_flowchart-v2-pointEnd)"/><path d="M2207.424,756.19L2175.155,735.69C2142.887,715.19,2078.35,674.19,2016.574,617.011C1954.797,559.832,1895.782,486.474,1866.275,449.796L1836.767,413.117" id="L_TSC_OS_0" class="edge-thickness-normal edge-pattern-solid edge-thickness-normal edge-pattern-solid flowchart-link" style=";" data-edge="true" data-et="edge" data-id="L_TSC_OS_0" data-points="W3sieCI6MjIwNy40MjM2MTExMTExMTEzLCJ5Ijo3NTYuMTg5Nzc3Mzc0MjY3Nn0seyJ4IjoyMDEzLjgxMjUsInkiOjYzMy4xODk3NzczNzQyNjc2fSx7IngiOjE4MzQuMjYwMTA1MTAwMjc2LCJ5Ijo0MTB9XQ==" marker-end="url(#my-svg_flowchart-v2-pointEnd)"/><path d="M1831.011,410L1861.478,454.532C1891.945,499.063,1952.879,588.127,2018.628,666.695C2084.377,745.264,2154.942,813.338,2190.224,847.375L2225.507,881.413" id="L_OS_HCB_0" class="edge-thickness-normal edge-pattern-solid edge-thickness-normal edge-pattern-solid flowchart-link" style=";" data-edge="true" data-et="edge" data-id="L_OS_HCB_0" data-points="W3sieCI6MTgzMS4wMTE0MzM4NDEzOTU3LCJ5Ijo0MTB9LHsieCI6MjAxMy44MTI1LCJ5Ijo2NzcuMTg5Nzc3Mzc0MjY3Nn0seyJ4IjoyMjI4LjM4NTY3MDczMTcwNzMsInkiOjg4NC4xODk3NzczNzQyNjc2fV0=" marker-end="url(#my-svg_flowchart-v2-pointEnd)"/><path d="M2367.031,545.19L2381.965,545.19C2396.898,545.19,2426.766,545.19,2462.184,579.783C2497.603,614.376,2538.573,683.562,2559.058,718.155L2579.543,752.748" id="L_SMS_HSMS_0" class="edge-thickness-normal edge-pattern-solid edge-thickness-normal edge-pattern-solid flowchart-link" style=";" data-edge="true" data-et="edge" data-id="L_SMS_HSMS_0" data-points="W3sieCI6MjM2Ny4wMzEyNSwieSI6NTQ1LjE4OTc3NzM3NDI2NzZ9LHsieCI6MjQ1Ni42MzI4MTI1LCJ5Ijo1NDUuMTg5Nzc3Mzc0MjY3Nn0seyJ4IjoyNTgxLjU4MTYwNDUxNjgwNjcsInkiOjc1Ni4xODk3NzczNzQyNjc2fV0=" marker-end="url(#my-svg_flowchart-v2-pointEnd)"/><path d="M2571.145,756.19L2552.059,736.69C2532.974,717.19,2494.803,678.19,2454.002,647.821C2413.201,617.453,2369.77,595.717,2348.054,584.848L2326.338,573.98" id="L_HSMS_SMS_0" class="edge-thickness-normal edge-pattern-solid edge-thickness-normal edge-pattern-solid flowchart-link" style=";" data-edge="true" data-et="edge" data-id="L_HSMS_SMS_0" data-points="W3sieCI6MjU3MS4xNDQ1MzEyNSwieSI6NzU2LjE4OTc3NzM3NDI2NzZ9LHsieCI6MjQ1Ni42MzI4MTI1LCJ5Ijo2MzkuMTg5Nzc3Mzc0MjY3Nn0seyJ4IjoyMzIyLjc2MDg4NzYzMjk3ODcsInkiOjU3Mi4xODk3NzczNzQyNjc2fV0=" marker-end="url(#my-svg_flowchart-v2-pointEnd)"/><path d="M3344.703,849.19L3348.87,849.19C3353.036,849.19,3361.37,849.19,3369.036,849.19C3376.703,849.19,3383.703,849.19,3387.203,849.19L3390.703,849.19" id="L_UI_AUTH_0" class="edge-thickness-normal edge-pattern-solid edge-thickness-normal edge-pattern-solid flowchart-link" style=";" data-edge="true" data-et="edge" data-id="L_UI_AUTH_0" data-points="W3sieCI6MzM0NC43MDMxMjUsInkiOjg0OS4xODk3NzczNzQyNjc2fSx7IngiOjMzNjkuNzAzMTI1LCJ5Ijo4NDkuMTg5Nzc3Mzc0MjY3Nn0seyJ4IjozMzk0LjcwMzEyNSwieSI6ODQ5LjE4OTc3NzM3NDI2NzZ9XQ==" marker-end="url(#my-svg_flowchart-v2-pointEnd)"/><path d="M3508.187,810.19L3485.106,755.69C3462.026,701.19,3415.864,592.19,3378.234,537.69C3340.604,483.19,3311.505,483.19,3282.406,483.19C3253.307,483.19,3224.208,483.19,3188.826,483.19C3153.443,483.19,3111.776,483.19,3052.241,483.19C2992.706,483.19,2915.302,483.19,2854.565,483.19C2793.828,483.19,2749.758,483.19,2709.703,483.19C2669.648,483.19,2633.609,483.19,2592.1,483.19C2550.591,483.19,2503.612,483.19,2448.819,483.19C2394.026,483.19,2331.419,483.19,2257.616,483.19C2183.813,483.19,2098.813,483.19,2022.767,483.19C1946.721,483.19,1879.63,483.19,1812.539,483.19C1745.448,483.19,1678.357,483.19,1618.209,481.021C1558.061,478.853,1504.856,474.516,1478.253,472.347L1451.651,470.179" id="L_AUTH_OC_0" class="edge-thickness-normal edge-pattern-solid edge-thickness-normal edge-pattern-solid flowchart-link" style=";" data-edge="true" data-et="edge" data-id="L_AUTH_OC_0" data-points="W3sieCI6MzUwOC4xODY3MzE1NTczNzcyLCJ5Ijo4MTAuMTg5Nzc3Mzc0MjY3Nn0seyJ4IjozMzY5LjcwMzEyNSwieSI6NDgzLjE4OTc3NzM3NDI2NzZ9LHsieCI6MzI4Mi40MDYyNSwieSI6NDgzLjE4OTc3NzM3NDI2NzZ9LHsieCI6MzE5NS4xMDkzNzUsInkiOjQ4My4xODk3NzczNzQyNjc2fSx7IngiOjMwNzAuMTA5Mzc1LCJ5Ijo0ODMuMTg5Nzc3Mzc0MjY3Nn0seyJ4IjoyODM3Ljg5ODQzNzUsInkiOjQ4My4xODk3NzczNzQyNjc2fSx7IngiOjI3MDUuNjg3NSwieSI6NDgzLjE4OTc3NzM3NDI2NzZ9LHsieCI6MjU5Ny41NzAzMTI1LCJ5Ijo0ODMuMTg5Nzc3Mzc0MjY3Nn0seyJ4IjoyNDU2LjYzMjgxMjUsInkiOjQ4My4xODk3NzczNzQyNjc2fSx7IngiOjIyNjguODEyNSwieSI6NDgzLjE4OTc3NzM3NDI2NzZ9LHsieCI6MjAxMy44MTI1LCJ5Ijo0ODMuMTg5Nzc3Mzc0MjY3Nn0seyJ4IjoxODEyLjUzOTA2MjUsInkiOjQ4My4xODk3NzczNzQyNjc2fSx7IngiOjE2MTEuMjY1NjI1LCJ5Ijo0ODMuMTg5Nzc3Mzc0MjY3Nn0seyJ4IjoxNDQ3LjY2NDA2MjUsInkiOjQ2OS44NTQwNDU2NDg5MzQ2fV0=" marker-end="url(#my-svg_flowchart-v2-pointEnd)"/><path d="M3654.703,849.19L3658.87,849.19C3663.036,849.19,3671.37,849.19,3679.703,756.658C3688.036,664.127,3696.37,479.063,3712.13,378.576C3727.89,278.088,3751.077,262.176,3762.671,254.219L3774.264,246.263" id="L_AUTH_AUD_0" class="edge-thickness-normal edge-pattern-solid edge-thickness-normal edge-pattern-solid flowchart-link" style=";" data-edge="true" data-et="edge" data-id="L_AUTH_AUD_0" data-points="W3sieCI6MzY1NC43MDMxMjUsInkiOjg0OS4xODk3NzczNzQyNjc2fSx7IngiOjM2NzkuNzAzMTI1LCJ5Ijo4NDkuMTg5Nzc3Mzc0MjY3Nn0seyJ4IjozNzA0LjcwMzEyNSwieSI6Mjk0fSx7IngiOjM3NzcuNTYyMjk3MDc3OTIyMywieSI6MjQ0fV0=" marker-end="url(#my-svg_flowchart-v2-pointEnd)"/><path d="M2617.109,445.959L2631.872,471.997C2646.635,498.036,2676.161,550.113,2710.236,612.23C2744.311,674.348,2782.935,746.505,2802.247,782.584L2821.559,818.663" id="L_DB_AN_0" class="edge-thickness-normal edge-pattern-solid edge-thickness-normal edge-pattern-solid flowchart-link" style=";" data-edge="true" data-et="edge" data-id="L_DB_AN_0" data-points="W3sieCI6MjYxNy4xMDg5MDgyMDE0MTczLCJ5Ijo0NDUuOTU4NTI4OTk1OTE1OTd9LHsieCI6MjcwNS42ODc1LCJ5Ijo2MDIuMTg5Nzc3Mzc0MjY3Nn0seyJ4IjoyODIzLjQ0NjIyOTc1NzA4NSwieSI6ODIyLjE4OTc3NzM3NDI2NzZ9XQ==" marker-end="url(#my-svg_flowchart-v2-pointEnd)"/><path d="M2945.109,849.19L2965.943,849.19C2986.776,849.19,3028.443,849.19,3070.109,849.19C3111.776,849.19,3153.443,849.19,3177.776,849.19C3202.109,849.19,3209.109,849.19,3212.609,849.19L3216.109,849.19" id="L_AN_UI_0" class="edge-thickness-normal edge-pattern-solid edge-thickness-normal edge-pattern-solid flowchart-link" style=";" data-edge="true" data-et="edge" data-id="L_AN_UI_0" data-points="W3sieCI6Mjk0NS4xMDkzNzUsInkiOjg0OS4xODk3NzczNzQyNjc2fSx7IngiOjMwNzAuMTA5Mzc1LCJ5Ijo4NDkuMTg5Nzc3Mzc0MjY3Nn0seyJ4IjozMTk1LjEwOTM3NSwieSI6ODQ5LjE4OTc3NzM3NDI2NzZ9LHsieCI6MzIyMC4xMDkzNzUsInkiOjg0OS4xODk3NzczNzQyNjc2fV0=" marker-end="url(#my-svg_flowchart-v2-pointEnd)"/></g><g class="edgeLabels"><g class="edgeLabel" transform="translate(260.953125, 276)"><g class="label" data-id="L_C_HPS_0" transform="translate(-100, -24)"><foreignObject width="200" height="48"><div xmlns="http://www.w3.org/1999/xhtml" class="labelBkg" style="display: table; white-space: break-spaces; line-height: 1.5; max-width: 200px; text-align: center; width: 200px;"><span class="edgeLabel"><p>Dials USSD / Uses Hubtel App or Web Mall</p></span></div></foreignObject></g></g><g class="edgeLabel" transform="translate(770.953125, 208)"><g class="label" data-id="L_HPS_SI_0" transform="translate(-100, -24)"><foreignObject width="200" height="48"><div xmlns="http://www.w3.org/1999/xhtml" class="labelBkg" style="display: table; white-space: break-spaces; line-height: 1.5; max-width: 200px; text-align: center; width: 200px;"><span class="edgeLabel"><p>Push request: Initiation/Response</p></span></div></foreignObject></g></g><g class="edgeLabel"><g class="label" data-id="L_SI_OC_0" transform="translate(0, 0)"><foreignObject width="0" height="0"><div xmlns="http://www.w3.org/1999/xhtml" class="labelBkg" style="display: table-cell; white-space: nowrap; line-height: 1.5; max-width: 200px; text-align: center;"><span class="edgeLabel"></span></div></foreignObject></g></g><g class="edgeLabel"><g class="label" data-id="L_OC_OS_0" transform="translate(0, 0)"><foreignObject width="0" height="0"><div xmlns="http://www.w3.org/1999/xhtml" class="labelBkg" style="display: table-cell; white-space: nowrap; line-height: 1.5; max-width: 200px; text-align: center;"><span class="edgeLabel"></span></div></foreignObject></g></g><g class="edgeLabel"><g class="label" data-id="L_OS_DB_0" transform="translate(0, 0)"><foreignObject width="0" height="0"><div xmlns="http://www.w3.org/1999/xhtml" class="labelBkg" style="display: table-cell; white-space: nowrap; line-height: 1.5; max-width: 200px; text-align: center;"><span class="edgeLabel"></span></div></foreignObject></g></g><g class="edgeLabel"><g class="label" data-id="L_OS_LS_0" transform="translate(0, 0)"><foreignObject width="0" height="0"><div xmlns="http://www.w3.org/1999/xhtml" class="labelBkg" style="display: table-cell; white-space: nowrap; line-height: 1.5; max-width: 200px; text-align: center;"><span class="edgeLabel"></span></div></foreignObject></g></g><g class="edgeLabel"><g class="label" data-id="L_OS_DS_0" transform="translate(0, 0)"><foreignObject width="0" height="0"><div xmlns="http://www.w3.org/1999/xhtml" class="labelBkg" style="display: table-cell; white-space: nowrap; line-height: 1.5; max-width: 200px; text-align: center;"><span class="edgeLabel"></span></div></foreignObject></g></g><g class="edgeLabel"><g class="label" data-id="L_OS_SMS_0" transform="translate(0, 0)"><foreignObject width="0" height="0"><div xmlns="http://www.w3.org/1999/xhtml" class="labelBkg" style="display: table-cell; white-space: nowrap; line-height: 1.5; max-width: 200px; text-align: center;"><span class="edgeLabel"></span></div></foreignObject></g></g><g class="edgeLabel"><g class="label" data-id="L_LS_DB_0" transform="translate(0, 0)"><foreignObject width="0" height="0"><div xmlns="http://www.w3.org/1999/xhtml" class="labelBkg" style="display: table-cell; white-space: nowrap; line-height: 1.5; max-width: 200px; text-align: center;"><span class="edgeLabel"></span></div></foreignObject></g></g><g class="edgeLabel"><g class="label" data-id="L_DS_DB_0" transform="translate(0, 0)"><foreignObject width="0" height="0"><div xmlns="http://www.w3.org/1999/xhtml" class="labelBkg" style="display: table-cell; white-space: nowrap; line-height: 1.5; max-width: 200px; text-align: center;"><span class="edgeLabel"></span></div></foreignObject></g></g><g class="edgeLabel"><g class="label" data-id="L_SMS_DB_0" transform="translate(0, 0)"><foreignObject width="0" height="0"><div xmlns="http://www.w3.org/1999/xhtml" class="labelBkg" style="display: table-cell; white-space: nowrap; line-height: 1.5; max-width: 200px; text-align: center;"><span class="edgeLabel"></span></div></foreignObject></g></g><g class="edgeLabel"><g class="label" data-id="L_AUD_DB_0" transform="translate(0, 0)"><foreignObject width="0" height="0"><div xmlns="http://www.w3.org/1999/xhtml" class="labelBkg" style="display: table-cell; white-space: nowrap; line-height: 1.5; max-width: 200px; text-align: center;"><span class="edgeLabel"></span></div></foreignObject></g></g><g class="edgeLabel" transform="translate(2837.8984375, 129)"><g class="label" data-id="L_OS_AUD_0" transform="translate(-73.3828125, -12)"><foreignObject width="146.765625" height="24"><div xmlns="http://www.w3.org/1999/xhtml" class="labelBkg" style="display: table-cell; white-space: nowrap; line-height: 1.5; max-width: 200px; text-align: center;"><span class="edgeLabel"><p>All status transitions</p></span></div></foreignObject></g></g><g class="edgeLabel" transform="translate(3070.109375, 173)"><g class="label" data-id="L_DS_AUD_0" transform="translate(-100, -24)"><foreignObject width="200" height="48"><div xmlns="http://www.w3.org/1999/xhtml" class="labelBkg" style="display: table; white-space: break-spaces; line-height: 1.5; max-width: 200px; text-align: center; width: 200px;"><span class="edgeLabel"><p>Sensitive verification events</p></span></div></foreignObject></g></g><g class="edgeLabel" transform="translate(770.953125, 592.1897773742676)"><g class="label" data-id="L_SI_HPS_0" transform="translate(-70.6875, -12)"><foreignObject width="141.375" height="24"><div xmlns="http://www.w3.org/1999/xhtml" class="labelBkg" style="display: table-cell; white-space: nowrap; line-height: 1.5; max-width: 200px; text-align: center;"><span class="edgeLabel"><p>AddToCart response</p></span></div></foreignObject></g></g><g class="edgeLabel" transform="translate(1050.953125, 35)"><g class="label" data-id="L_HPS_CB_0" transform="translate(-100, -24)"><foreignObject width="200" height="48"><div xmlns="http://www.w3.org/1999/xhtml" class="labelBkg" style="display: table; white-space: break-spaces; line-height: 1.5; max-width: 200px; text-align: center; width: 200px;"><span class="edgeLabel"><p>Service Fulfillment callback after payment</p></span></div></foreignObject></g></g><g class="edgeLabel" transform="translate(1611.265625, 415.5948886871338)"><g class="label" data-id="L_CB_OS_0" transform="translate(-100, -24)"><foreignObject width="200" height="48"><div xmlns="http://www.w3.org/1999/xhtml" class="labelBkg" style="display: table; white-space: break-spaces; line-height: 1.5; max-width: 200px; text-align: center; width: 200px;"><span class="edgeLabel"><p>Verify signature + validate payload</p></span></div></foreignObject></g></g><g class="edgeLabel"><g class="label" data-id="L_CB_AUD_0" transform="translate(0, 0)"><foreignObject width="0" height="0"><div xmlns="http://www.w3.org/1999/xhtml" class="labelBkg" style="display: table-cell; white-space: nowrap; line-height: 1.5; max-width: 200px; text-align: center;"><span class="edgeLabel"></span></div></foreignObject></g></g><g class="edgeLabel" transform="translate(2019.77933, 594.01004)"><g class="label" data-id="L_OS_TSC_0" transform="translate(-100, -24)"><foreignObject width="200" height="48"><div xmlns="http://www.w3.org/1999/xhtml" class="labelBkg" style="display: table; white-space: break-spaces; line-height: 1.5; max-width: 200px; text-align: center; width: 200px;"><span class="edgeLabel"><p>Optional: if no final callback after 5 min</p></span></div></foreignObject></g></g><g class="edgeLabel"><g class="label" data-id="L_TSC_OS_0" transform="translate(0, 0)"><foreignObject width="0" height="0"><div xmlns="http://www.w3.org/1999/xhtml" class="labelBkg" style="display: table-cell; white-space: nowrap; line-height: 1.5; max-width: 200px; text-align: center;"><span class="edgeLabel"></span></div></foreignObject></g></g><g class="edgeLabel" transform="translate(2006.58683, 666.62843)"><g class="label" data-id="L_OS_HCB_0" transform="translate(-100, -24)"><foreignObject width="200" height="48"><div xmlns="http://www.w3.org/1999/xhtml" class="labelBkg" style="display: table; white-space: break-spaces; line-height: 1.5; max-width: 200px; text-align: center; width: 200px;"><span class="edgeLabel"><p>Service fulfillment callback within 1 hour</p></span></div></foreignObject></g></g><g class="edgeLabel" transform="translate(2456.6328125, 545.1897773742676)"><g class="label" data-id="L_SMS_HSMS_0" transform="translate(-32.8203125, -12)"><foreignObject width="65.640625" height="24"><div xmlns="http://www.w3.org/1999/xhtml" class="labelBkg" style="display: table-cell; white-space: nowrap; line-height: 1.5; max-width: 200px; text-align: center;"><span class="edgeLabel"><p>Send SMS</p></span></div></foreignObject></g></g><g class="edgeLabel"><g class="label" data-id="L_HSMS_SMS_0" transform="translate(0, 0)"><foreignObject width="0" height="0"><div xmlns="http://www.w3.org/1999/xhtml" class="labelBkg" style="display: table-cell; white-space: nowrap; line-height: 1.5; max-width: 200px; text-align: center;"><span class="edgeLabel"></span></div></foreignObject></g></g><g class="edgeLabel"><g class="label" data-id="L_UI_AUTH_0" transform="translate(0, 0)"><foreignObject width="0" height="0"><div xmlns="http://www.w3.org/1999/xhtml" class="labelBkg" style="display: table-cell; white-space: nowrap; line-height: 1.5; max-width: 200px; text-align: center;"><span class="edgeLabel"></span></div></foreignObject></g></g><g class="edgeLabel"><g class="label" data-id="L_AUTH_OC_0" transform="translate(0, 0)"><foreignObject width="0" height="0"><div xmlns="http://www.w3.org/1999/xhtml" class="labelBkg" style="display: table-cell; white-space: nowrap; line-height: 1.5; max-width: 200px; text-align: center;"><span class="edgeLabel"></span></div></foreignObject></g></g><g class="edgeLabel"><g class="label" data-id="L_AUTH_AUD_0" transform="translate(0, 0)"><foreignObject width="0" height="0"><div xmlns="http://www.w3.org/1999/xhtml" class="labelBkg" style="display: table-cell; white-space: nowrap; line-height: 1.5; max-width: 200px; text-align: center;"><span class="edgeLabel"></span></div></foreignObject></g></g><g class="edgeLabel"><g class="label" data-id="L_DB_AN_0" transform="translate(0, 0)"><foreignObject width="0" height="0"><div xmlns="http://www.w3.org/1999/xhtml" class="labelBkg" style="display: table-cell; white-space: nowrap; line-height: 1.5; max-width: 200px; text-align: center;"><span class="edgeLabel"></span></div></foreignObject></g></g><g class="edgeLabel"><g class="label" data-id="L_AN_UI_0" transform="translate(0, 0)"><foreignObject width="0" height="0"><div xmlns="http://www.w3.org/1999/xhtml" class="labelBkg" style="display: table-cell; white-space: nowrap; line-height: 1.5; max-width: 200px; text-align: center;"><span class="edgeLabel"></span></div></foreignObject></g></g></g><g class="nodes"><g class="node default" id="flowchart-C-0" transform="translate(71.9765625, 276)"><rect class="basic label-container" style="" x="-63.9765625" y="-27" width="127.953125" height="54"/><g class="label" style="" transform="translate(-33.9765625, -12)"><rect/><foreignObject width="67.953125" height="24"><div xmlns="http://www.w3.org/1999/xhtml" style="display: table-cell; white-space: nowrap; line-height: 1.5; max-width: 200px; text-align: center;"><span class="nodeLabel"><p>Customer</p></span></div></foreignObject></g></g><g class="node default" id="flowchart-HPS-1" transform="translate(515.953125, 276)"><rect class="basic label-container" style="" x="-130" y="-39" width="260" height="78"/><g class="label" style="" transform="translate(-100, -24)"><rect/><foreignObject width="200" height="48"><div xmlns="http://www.w3.org/1999/xhtml" style="display: table; white-space: break-spaces; line-height: 1.5; max-width: 200px; text-align: center; width: 200px;"><span class="nodeLabel"><p>Hubtel Programmable Services</p></span></div></foreignObject></g></g><g class="node default" id="flowchart-SI-3" transform="translate(1050.953125, 462.5948886871338)"><rect class="basic label-container" style="" x="-130" y="-39" width="260" height="78"/><g class="label" style="" transform="translate(-100, -24)"><rect/><foreignObject width="200" height="48"><div xmlns="http://www.w3.org/1999/xhtml" style="display: table; white-space: break-spaces; line-height: 1.5; max-width: 200px; text-align: center; width: 200px;"><span class="nodeLabel"><p>Service Interaction Endpoint</p></span></div></foreignObject></g></g><g class="node default" id="flowchart-OC-5" transform="translate(1358.609375, 462.5948886871338)"><rect class="basic label-container" style="" x="-89.0546875" y="-27" width="178.109375" height="54"/><g class="label" style="" transform="translate(-59.0546875, -12)"><rect/><foreignObject width="118.109375" height="24"><div xmlns="http://www.w3.org/1999/xhtml" style="display: table-cell; white-space: nowrap; line-height: 1.5; max-width: 200px; text-align: center;"><span class="nodeLabel"><p>Order Controller</p></span></div></foreignObject></g></g><g class="node default" id="flowchart-OS-7" transform="translate(1812.5390625, 383)"><rect class="basic label-container" style="" x="-76.2734375" y="-27" width="152.546875" height="54"/><g class="label" style="" transform="translate(-46.2734375, -12)"><rect/><foreignObject width="92.546875" height="24"><div xmlns="http://www.w3.org/1999/xhtml" style="display: table-cell; white-space: nowrap; line-height: 1.5; max-width: 200px; text-align: center;"><span class="nodeLabel"><p>OrderService</p></span></div></foreignObject></g></g><g class="node default" id="flowchart-DB-9" transform="translate(2597.5703125, 413)"><path d="M0,9.793187347931873 a40.25,9.793187347931873 0,0,0 80.5,0 a40.25,9.793187347931873 0,0,0 -80.5,0 l0,48.79318734793188 a40.25,9.793187347931873 0,0,0 80.5,0 l0,-48.79318734793188" class="basic label-container" style="" transform="translate(-40.25, -34.189781021897815)"/><g class="label" style="" transform="translate(-32.75, -2)"><rect/><foreignObject width="65.5" height="24"><div xmlns="http://www.w3.org/1999/xhtml" style="display: table-cell; white-space: nowrap; line-height: 1.5; max-width: 200px; text-align: center;"><span class="nodeLabel"><p>Database</p></span></div></foreignObject></g></g><g class="node default" id="flowchart-LS-11" transform="translate(2268.8125, 403)"><rect class="basic label-container" style="" x="-81.8125" y="-27" width="163.625" height="54"/><g class="label" style="" transform="translate(-51.8125, -12)"><rect/><foreignObject width="103.625" height="24"><div xmlns="http://www.w3.org/1999/xhtml" style="display: table-cell; white-space: nowrap; line-height: 1.5; max-width: 200px; text-align: center;"><span class="nodeLabel"><p>LoyaltyService</p></span></div></foreignObject></g></g><g class="node default" id="flowchart-DS-13" transform="translate(2268.8125, 279)"><rect class="basic label-container" style="" x="-85.09375" y="-27" width="170.1875" height="54"/><g class="label" style="" transform="translate(-55.09375, -12)"><rect/><foreignObject width="110.1875" height="24"><div xmlns="http://www.w3.org/1999/xhtml" style="display: table-cell; white-space: nowrap; line-height: 1.5; max-width: 200px; text-align: center;"><span class="nodeLabel"><p>DeliveryService</p></span></div></foreignObject></g></g><g class="node default" id="flowchart-SMS-15" transform="translate(2268.8125, 545.1897773742676)"><rect class="basic label-container" style="" x="-98.21875" y="-27" width="196.4375" height="54"/><g class="label" style="" transform="translate(-68.21875, -12)"><rect/><foreignObject width="136.4375" height="24"><div xmlns="http://www.w3.org/1999/xhtml" style="display: table-cell; white-space: nowrap; line-height: 1.5; max-width: 200px; text-align: center;"><span class="nodeLabel"><p>NotificationService</p></span></div></foreignObject></g></g><g class="node default" id="flowchart-AUD-22" transform="translate(3816.90625, 217)"><rect class="basic label-container" style="" x="-87.203125" y="-27" width="174.40625" height="54"/><g class="label" style="" transform="translate(-57.203125, -12)"><rect/><foreignObject width="114.40625" height="24"><div xmlns="http://www.w3.org/1999/xhtml" style="display: table-cell; white-space: nowrap; line-height: 1.5; max-width: 200px; text-align: center;"><span class="nodeLabel"><p>AuditLogService</p></span></div></foreignObject></g></g><g class="node default" id="flowchart-CB-31" transform="translate(1358.609375, 35)"><rect class="basic label-container" style="" x="-127.65625" y="-27" width="255.3125" height="54"/><g class="label" style="" transform="translate(-97.65625, -12)"><rect/><foreignObject width="195.3125" height="24"><div xmlns="http://www.w3.org/1999/xhtml" style="display: table-cell; white-space: nowrap; line-height: 1.5; max-width: 200px; text-align: center;"><span class="nodeLabel"><p>Payment Callback Endpoint</p></span></div></foreignObject></g></g><g class="node default" id="flowchart-TSC-37" transform="translate(2268.8125, 795.1897773742676)"><rect class="basic label-container" style="" x="-130" y="-39" width="260" height="78"/><g class="label" style="" transform="translate(-100, -24)"><rect/><foreignObject width="200" height="48"><div xmlns="http://www.w3.org/1999/xhtml" style="display: table; white-space: break-spaces; line-height: 1.5; max-width: 200px; text-align: center; width: 200px;"><span class="nodeLabel"><p>Hubtel Transaction Status Check API</p></span></div></foreignObject></g></g><g class="node default" id="flowchart-HCB-41" transform="translate(2268.8125, 923.1897773742676)"><rect class="basic label-container" style="" x="-130" y="-39" width="260" height="78"/><g class="label" style="" transform="translate(-100, -24)"><rect/><foreignObject width="200" height="48"><div xmlns="http://www.w3.org/1999/xhtml" style="display: table; white-space: break-spaces; line-height: 1.5; max-width: 200px; text-align: center; width: 200px;"><span class="nodeLabel"><p>Hubtel Fulfillment Callback Endpoint</p></span></div></foreignObject></g></g><g class="node default" id="flowchart-HSMS-43" transform="translate(2597.5703125, 783.1897773742676)"><rect class="basic label-container" style="" x="-83.1171875" y="-27" width="166.234375" height="54"/><g class="label" style="" transform="translate(-53.1171875, -12)"><rect/><foreignObject width="106.234375" height="24"><div xmlns="http://www.w3.org/1999/xhtml" style="display: table-cell; white-space: nowrap; line-height: 1.5; max-width: 200px; text-align: center;"><span class="nodeLabel"><p>Hubtel SMS API</p></span></div></foreignObject></g></g><g class="node default" id="flowchart-UI-46" transform="translate(3282.40625, 849.1897773742676)"><rect class="basic label-container" style="" x="-62.296875" y="-27" width="124.59375" height="54"/><g class="label" style="" transform="translate(-32.296875, -12)"><rect/><foreignObject width="64.59375" height="24"><div xmlns="http://www.w3.org/1999/xhtml" style="display: table-cell; white-space: nowrap; line-height: 1.5; max-width: 200px; text-align: center;"><span class="nodeLabel"><p>Admin UI</p></span></div></foreignObject></g></g><g class="node default" id="flowchart-AUTH-47" transform="translate(3524.703125, 849.1897773742676)"><rect class="basic label-container" style="" x="-130" y="-39" width="260" height="78"/><g class="label" style="" transform="translate(-100, -24)"><rect/><foreignObject width="200" height="48"><div xmlns="http://www.w3.org/1999/xhtml" style="display: table; white-space: break-spaces; line-height: 1.5; max-width: 200px; text-align: center; width: 200px;"><span class="nodeLabel"><p>Auth Layer JWT HttpOnly + CSRF</p></span></div></foreignObject></g></g><g class="node default" id="flowchart-AN-54" transform="translate(2837.8984375, 849.1897773742676)"><rect class="basic label-container" style="" x="-107.2109375" y="-27" width="214.421875" height="54"/><g class="label" style="" transform="translate(-77.2109375, -12)"><rect/><foreignObject width="154.421875" height="24"><div xmlns="http://www.w3.org/1999/xhtml" style="display: table-cell; white-space: nowrap; line-height: 1.5; max-width: 200px; text-align: center;"><span class="nodeLabel"><p>Analytics SQL Queries</p></span></div></foreignObject></g></g></g></g></g></svg>